<svg width="76" height="76" viewBox="0 0 76 76" fill="none" xmlns="http://www.w3.org/2000/svg">
<path d="M75.9834 37.9466C75.9834 58.6573 59.194 75.4466 38.4834 75.4466C17.7727 75.4466 0.983378 58.6573 0.98338 37.9466C0.983382 17.2359 17.7727 0.446596 38.4834 0.446598C59.1941 0.446599 75.9834 17.2359 75.9834 37.9466Z" fill="white"/>
<path fill-rule="evenodd" clip-rule="evenodd" d="M38.4834 74.1073C58.4544 74.1073 74.6441 57.9176 74.6441 37.9466C74.6441 17.9756 58.4544 1.78588 38.4834 1.78588C18.5124 1.78588 2.32267 17.9756 2.32267 37.9466C2.32266 57.9176 18.5124 74.1073 38.4834 74.1073ZM38.4834 75.4466C59.1941 75.4466 75.9834 58.6573 75.9834 37.9466C75.9834 17.2359 59.1941 0.446599 38.4834 0.446598C17.7727 0.446596 0.983382 17.2359 0.98338 37.9466C0.983378 58.6573 17.7727 75.4466 38.4834 75.4466Z" fill="black"/>
<path d="M63.6259 37.9465C63.6259 51.9336 52.2871 63.2723 38.3 63.2723C24.3129 63.2723 12.9741 51.9336 12.9741 37.9465C12.9741 23.9594 24.3129 12.6206 38.3 12.6206C52.2871 12.6206 63.6259 23.9594 63.6259 37.9465Z" fill="black"/>
<path fill-rule="evenodd" clip-rule="evenodd" d="M41.8082 43.6886L50.5557 38.3015L41.8082 32.9145L41.8082 43.6886ZM51.2546 39.4365C52.0999 38.9159 52.0999 37.6871 51.2546 37.1666L42.5072 31.7795C41.6191 31.2326 40.4753 31.8715 40.4753 32.9145L40.4753 43.6886C40.4753 44.7315 41.6191 45.3705 42.5072 44.8235L51.2546 39.4365Z" fill="#FFD700"/>
<path fill-rule="evenodd" clip-rule="evenodd" d="M45.8743 40.7211L42.1025 38.3015L45.8743 35.8819L45.8743 40.7211ZM41.3827 39.4234C40.5651 38.8989 40.5651 37.7041 41.3827 37.1796L45.1545 34.7599C46.0417 34.1908 47.2072 34.8279 47.2072 35.8819L47.2072 40.7211C47.2072 41.7751 46.0417 42.4121 45.1545 41.843L41.3827 39.4234Z" fill="#FFD700"/>
<path fill-rule="evenodd" clip-rule="evenodd" d="M34.7921 43.6882L26.0446 38.3012L34.7921 32.9141L34.7921 43.6882ZM25.3457 39.4361C24.5004 38.9156 24.5004 37.6868 25.3457 37.1662L34.0931 31.7792C34.9812 31.2322 36.125 31.8712 36.125 32.9141L36.125 43.6882C36.125 44.7312 34.9812 45.3701 34.0931 44.8232L25.3457 39.4361Z" fill="#FFD700"/>
<path fill-rule="evenodd" clip-rule="evenodd" d="M30.7259 40.7206L34.4977 38.301L30.7259 35.8814L30.7259 40.7206ZM35.2174 39.4229C36.0351 38.8984 36.0351 37.7036 35.2174 37.1791L31.4456 34.7594C30.5585 34.1903 29.393 34.8274 29.393 35.8814L29.393 40.7206C29.393 41.7746 30.5585 42.4117 31.4456 41.8425L35.2174 39.4229Z" fill="#FFD700"/>
<path fill-rule="evenodd" clip-rule="evenodd" d="M34.6662 18.7751C26.3987 21.2277 20.3681 28.8827 20.3681 37.9461C20.3681 47.0096 26.3987 54.6645 34.6662 57.1172C32.861 57.6527 30.9492 57.9402 28.9702 57.9402C17.9278 57.9402 8.97612 48.9886 8.97613 37.9461C8.97613 26.9037 17.9278 17.952 28.9702 17.952C30.9492 17.952 32.861 18.2395 34.6662 18.7751Z" fill="#FFD700"/>
<path d="M12.1289 36.814C11.2901 37.3355 11.2901 38.5564 12.1289 39.0779L21.2677 44.7601C22.1557 45.3122 23.3045 44.6737 23.3045 43.6281L23.3045 32.2638C23.3045 31.2182 22.1557 30.5797 21.2677 31.1318L12.1289 36.814Z" fill="black"/>
<path d="M19.6394 37.946C19.6394 38.6821 19.0427 39.2789 18.3065 39.2789C17.5703 39.2789 16.9735 38.6821 16.9735 37.946C16.9735 37.2098 17.5703 36.613 18.3065 36.613C19.0427 36.613 19.6394 37.2098 19.6394 37.946Z" fill="#FFD700"/>
<path d="M37.1691 69.4494C37.6907 70.2882 38.9115 70.2882 39.4331 69.4494L45.1152 60.3106C45.6673 59.4226 45.0288 58.2738 43.9832 58.2738L32.6189 58.2738C31.5734 58.2738 30.9349 59.4226 31.4869 60.3106L37.1691 69.4494Z" fill="black"/>
<path d="M38.3012 61.9393C39.0374 61.9393 39.6341 62.5361 39.6341 63.2723C39.6341 64.0084 39.0374 64.6052 38.3012 64.6052C37.565 64.6052 36.9683 64.0084 36.9683 63.2723C36.9683 62.5361 37.565 61.9393 38.3012 61.9393Z" fill="#FFD700"/>
<path d="M40.9671 60.6061C41.7033 60.6061 42.3001 61.2029 42.3001 61.939C42.3001 62.6752 41.7033 63.272 40.9671 63.272C40.231 63.272 39.6342 62.6752 39.6342 61.939C39.6342 61.2029 40.231 60.6061 40.9671 60.6061Z" fill="black"/>
<path fill-rule="evenodd" clip-rule="evenodd" d="M42.3005 57.1171C44.1057 57.6526 46.0175 57.9401 47.9965 57.9401C59.0389 57.9401 67.9906 48.9885 67.9906 37.946C67.9906 26.9036 59.0389 17.9519 47.9965 17.9519C46.0175 17.9519 44.1057 18.2394 42.3005 18.7749C50.568 21.2276 56.5987 28.8825 56.5987 37.946C56.5987 47.0095 50.568 54.6644 42.3005 57.1171Z" fill="#FFD700"/>
<path d="M64.4731 36.8135C65.3119 37.335 65.3119 38.5559 64.4731 39.0774L55.3343 44.7596C54.4464 45.3117 53.2975 44.6732 53.2975 43.6276L53.2975 32.2633C53.2975 31.2177 54.4464 30.5792 55.3343 31.1313L64.4731 36.8135Z" fill="black"/>
<path d="M59.6298 37.946C59.6298 38.6821 59.033 39.2789 58.2968 39.2789C57.5607 39.2789 56.9639 38.6821 56.9639 37.946C56.9639 37.2098 57.5607 36.613 58.2968 36.613C59.033 36.613 59.6298 37.2098 59.6298 37.946Z" fill="#FFD700"/>
<path d="M37.1691 6.4437C37.6907 5.60487 38.9115 5.60487 39.4331 6.4437L45.1152 15.5825C45.6673 16.4704 45.0288 17.6193 43.9833 17.6193H32.6189C31.5734 17.6193 30.9349 16.4704 31.4869 15.5825L37.1691 6.4437Z" fill="black"/>
<path d="M38.3012 11.2872C39.0374 11.2872 39.6341 11.884 39.6341 12.6202C39.6341 13.3563 39.0374 13.9531 38.3012 13.9531C37.565 13.9531 36.9683 13.3563 36.9683 12.6202C36.9683 11.884 37.565 11.2872 38.3012 11.2872Z" fill="#FFD700"/>
</svg>
